<?xml version="1.0" encoding="UTF-8"?>
<svg width="86px" height="30px" viewBox="0 0 86 30" version="1.1" xmlns="http://www.w3.org/2000/svg" xmlns:xlink="http://www.w3.org/1999/xlink">
    <title>KekaLogoBlack</title>
    <g id="Symbols" stroke="none" stroke-width="1" fill="none" fill-rule="evenodd">
        <g id="Navheader" transform="translate(0.000000, -5.000000)">
            <g id="KekaLogoBlack" transform="translate(0.000000, 5.000000)">
                <path d="M67.9867382,1.52845292 C67.8951196,2.57383036 67.3509367,3.85304224 67.1396611,4.41699586 C66.3620878,6.4903278 65.6615214,8.16293172 65.2022438,7.98732665 C64.743361,7.81080458 65.1663072,6.01211347 65.4763097,3.77968242 C65.5932024,2.93925397 66.1377802,-0.584309925 67.4512433,0.0837229437 C67.9271071,0.325810353 68.0436049,0.882427994 67.9867382,1.52845292" id="Fill-1" fill="#89C263"></path>
                <path d="M75.7040749,3.33543455 C75.5936023,3.56683827 75.4639568,3.78157711 75.3384197,3.96679531 C74.730364,4.8600327 74.0442471,5.69946634 73.3238928,6.49652358 C71.3595806,8.66581438 69.6755584,10.3780114 69.1250214,9.92758361 C68.574941,9.47620352 69.9362189,7.46594326 71.3312777,4.86193725 C71.916052,3.76919748 72.6208854,2.63408132 73.5069486,1.7779828 C74.0232481,1.27898878 75.0617818,0.589539021 75.6817065,1.31374695 C76.1806591,1.89749377 76.0181457,2.68026683 75.7040749,3.33543455" id="Fill-2" fill="#EDA42D"></path>
                <path d="M84.8664876,15.4234895 C84.2702325,15.7102546 83.5782545,15.8915725 83.1609207,16.0021635 C82.5266448,16.1701933 81.8856594,16.3107896 81.2397536,16.4329541 C78.4883918,16.9507601 76.2107241,17.2876769 76.0179365,16.656708 C75.8452775,16.0934654 76.9666665,15.695252 77.343743,15.5216498 C78.7782443,14.8602469 80.2445041,14.18427 81.7353655,13.6484608 C82.7136175,13.2965413 85.3603103,12.3217972 85.9221231,13.7689107 C86.220027,14.5327603 85.6192988,15.0612825 84.8664876,15.4234895" id="Fill-3" fill="#AE5191"></path>
                <path d="M82.2545344,7.58501281 C81.8484337,8.02079997 81.3313765,8.38012549 80.8746797,8.72840164 C80.1605639,9.27424053 79.4202624,9.78604736 78.6626516,10.2700098 C75.8612227,12.0573559 73.508058,13.4402951 73.072221,12.8697056 C72.6181871,12.2756914 74.4414238,10.7871203 74.7445568,10.4777379 C75.8257167,9.37589473 76.902882,8.25990835 78.0750262,7.25176381 C78.9613464,6.49024121 81.4458836,4.12876982 82.7507317,5.33889684 C83.2034341,5.75921488 82.9482342,6.5202955 82.7010232,6.97685548 C82.581634,7.19740091 82.4285141,7.39805747 82.2545344,7.58501281" id="Fill-4" fill="#2D89BE"></path>
                <path d="M2.69152593,29.724234 L3.31026752,29.724234 C4.82618443,29.724234 5.93991929,28.9888579 5.93991929,26.8746518 L5.93991929,23.2896936 L9.25018682,28.0389972 C10.116425,29.356546 11.3848453,29.816156 12.4676431,29.816156 C14.2310566,29.816156 15.9016589,28.3454039 15.7469735,28.0389972 L11.2301599,21.7576602 L15.3447915,15.9665738 C15.4994769,15.6295265 13.9216858,14.1587744 12.1273352,14.1587744 C11.1064116,14.1587744 9.83799133,14.6183844 9.00269018,15.9359331 L5.93991929,20.5013928 L5.93991929,12.4735376 C5.93991929,8.88857939 3.99088328,8 2.28934389,8 C1.08279779,8 0,8.45961003 0,8.67409471 L0,26.8746518 C0,29.0501393 1.11373487,29.724234 2.69152593,29.724234 L2.69152593,29.724234 Z M25.6399641,30 C29.9711553,30 32.3533104,28.4679666 32.3533104,26.4456825 C32.3533104,24.2089136 29.6308474,23.9331476 29.6308474,23.994429 C29.0430429,25.0362117 27.7746226,25.9247911 25.9183978,25.9247911 C24.031236,25.9247911 22.7318786,25.1281337 22.3606337,23.5348189 L32.0439396,23.5348189 C32.9411149,23.5348189 33.2195486,22.8913649 33.2504857,22.0027855 L33.2504857,21.6350975 C33.2504857,17.2534819 29.9711553,14.0668524 25.2687192,14.0668524 C20.535346,14.0668524 17.1013301,17.4986072 17.1013301,22.1559889 C17.1013301,27.0278552 20.4115977,30 25.6399641,30 L25.6399641,30 Z M25.206845,17.8969359 C26.8465102,17.8969359 27.8674339,18.9387187 27.8983709,20.5013928 L22.2678224,20.5013928 C22.4534449,19 23.659991,17.8969359 25.206845,17.8969359 L25.206845,17.8969359 Z M38.750411,29.724234 L39.3691526,29.724234 C40.8850695,29.724234 41.9988044,28.9888579 41.9988044,26.8746518 L41.9988044,23.2896936 L45.3090719,28.0389972 C46.1753101,29.356546 47.4437304,29.816156 48.5265282,29.816156 C50.2899417,29.816156 51.960544,28.3454039 51.8058586,28.0389972 L47.289045,21.7576602 L51.4036766,15.9665738 C51.558362,15.6295265 49.9805709,14.1587744 48.1862203,14.1587744 C47.1652967,14.1587744 45.8968764,14.6183844 45.0615753,15.9359331 L41.9988044,20.5013928 L41.9988044,12.4735376 C41.9988044,8.88857939 40.0497683,8 38.348229,8 C37.1416829,8 36.0588851,8.45961003 36.0588851,8.67409471 L36.0588851,26.8746518 C36.0588851,29.0501393 37.1726199,29.724234 38.750411,29.724234 L38.750411,29.724234 Z M58.2338963,29.8774373 C60.461366,29.8774373 62.3485279,28.9582173 63.3694515,27.3955432 C63.8335077,29.0194986 65.0091167,29.8467967 66.7106561,29.8467967 C67.8553281,29.8467967 69,29.4791086 69,29.1727019 L69,20.5320334 C69,16.1810585 66.5869078,14.0668524 61.0801076,14.0668524 C56.0064265,14.0668524 53.7170826,15.5682451 53.7170826,17.9582173 C53.7170826,20.5626741 57.6151547,20.3481894 57.6460918,20.2562674 C58.0482738,19.3370474 58.8217008,18.2339833 60.7397997,18.2339833 C62.1629054,18.2339833 62.9982065,18.9387187 63.1219549,20.2562674 L62.5341504,20.2562674 C56.0064265,20.2869081 53.1292781,21.9415042 53.1292781,25.4038997 C53.1292781,28.0389972 55.1401883,29.8774373 58.2338963,29.8774373 L58.2338963,29.8774373 Z M60.5541773,26.2924791 C59.4713795,26.2924791 58.7598266,25.7715877 58.7598266,24.8830084 C58.7598266,23.718663 60.0282469,23.2284123 62.410402,23.1671309 L63.1528919,23.1671309 L63.1528919,23.6880223 C63.1528919,25.2200557 62.1319683,26.2924791 60.5541773,26.2924791 L60.5541773,26.2924791 Z" id="keka" fill="#2C2E31"></path>
            </g>
        </g>
    </g>
</svg>